<!-- <svg width="70" height="70" viewBox="0 0 70 70" fill="none" xmlns="http://www.w3.org/2000/svg">
<path d="M31.0833 55.7581V63.5081C31.0833 64.5599 30.2186 65.4247 29.1667 65.4247C28.1148 65.4247 27.25 64.5599 27.25 63.5081V55.7581H31.0833Z" stroke="white" stroke-width="2"/>
<path d="M42.75 55.7581V63.5081C42.75 64.5599 41.8852 65.4247 40.8333 65.4247C39.7814 65.4247 38.9167 64.5599 38.9167 63.5081V55.7581H42.75Z" stroke="white" stroke-width="2"/>
<path d="M48.5833 32.0833V46.6667C48.5833 49.3227 46.406 51.5 43.75 51.5H26.25C23.5939 51.5 21.4167 49.3227 21.4167 46.6667V32.0833C21.4167 29.4273 23.5939 27.25 26.25 27.25H43.75C46.406 27.25 48.5833 29.4273 48.5833 32.0833Z" stroke="white" stroke-width="2"/>
<path d="M13.5833 32.0833V43.75C13.5833 44.8018 12.7185 45.6666 11.6667 45.6666C10.6148 45.6666 9.75 44.8018 9.75 43.75V32.0833C9.75 31.0314 10.6148 30.1666 11.6667 30.1666C12.7185 30.1666 13.5833 31.0314 13.5833 32.0833Z" stroke="white" stroke-width="2"/>
<path d="M60.25 32.0833V43.75C60.25 44.8018 59.3852 45.6666 58.3333 45.6666C57.2814 45.6666 56.4167 44.8018 56.4167 43.75V32.0833C56.4167 31.0314 57.2814 30.1666 58.3333 30.1666C59.3852 30.1666 60.25 31.0314 60.25 32.0833Z" stroke="white" stroke-width="2"/>
<path d="M45.6667 17.5C45.6667 19.5144 44.0144 21.1667 42.0001 21.1667H27.9999C25.9856 21.1667 24.3333 19.5144 24.3333 17.5C24.3333 11.6065 29.1065 6.83337 35 6.83337C40.8936 6.83337 45.6667 11.6065 45.6667 17.5Z" stroke="white" stroke-width="2"/>
</svg> -->


<svg width="70px" height="70px" viewBox="0 0 16 16" fill="none" xmlns="http://www.w3.org/2000/svg"><g id="SVGRepo_bgCarrier" stroke-width="0"></g><g id="SVGRepo_tracerCarrier" stroke-linecap="round" stroke-linejoin="round"></g><g id="SVGRepo_iconCarrier"> <path fill-rule="nonzero" clip-rule="nonzero" d="M8.20726 0.129583C8.46706 0.205238 8.66501 0.416426 8.72371 0.680576L9.92292 6.07703L15.3194 7.27624C15.5836 7.33494 15.7948 7.53288 15.8704 7.79269C15.9461 8.05249 15.8742 8.33287 15.6828 8.52421L8.52427 15.6828C8.34503 15.862 8.08665 15.9373 7.8392 15.8823L1.98214 14.5807C1.70114 14.5183 1.48168 14.2988 1.41923 14.0178L0.117674 8.1608C0.0626867 7.91336 0.137929 7.65497 0.317168 7.47573L7.47574 0.317164C7.66708 0.125826 7.94746 0.0539287 8.20726 0.129583ZM8.48951 6.46196L7.56922 2.32064L1.65343 8.23644L2.57372 12.3777L8.48951 6.46196ZM3.62221 13.4262L7.76357 14.3465L13.6794 8.43073L9.538 7.51044L3.62221 13.4262Z" fill="#ffffff"></path> </g></svg>