<!-- <svg width="48" height="48" viewBox="0 0 48 48" fill="none" xmlns="http://www.w3.org/2000/svg">
<path d="M36 32.02C37.1 32.02 38 32.92 38 34.02V36C38 40.4 35 44 30 44H18C13 44 10 40.4 10 36V34.02C10 32.92 10.9 32.02 12 32.02H36Z" fill="white"/>
<path d="M38 12V27C38 28.1 37.1 29 36 29H12C10.9 29 10 28.1 10 27V12C10 7.6 13 4 18 4H30C35 4 38 7.6 38 12Z" fill="white"/>
<path d="M6 41.5C5.18 41.5 4.5 40.82 4.5 40V8C4.5 7.18 5.18 6.5 6 6.5C6.82 6.5 7.5 7.18 7.5 8V40C7.5 40.82 6.82 41.5 6 41.5Z" fill="white"/>
<path d="M42 41.5C41.18 41.5 40.5 40.82 40.5 40V8C40.5 7.18 41.18 6.5 42 6.5C42.82 6.5 43.5 7.18 43.5 8V40C43.5 40.82 42.82 41.5 42 41.5Z" fill="white"/>
</svg> -->


<svg width="70em" height="70em" viewBox="0 0 7070" fill="none" xmlns="http://www.w3.org/2000/svg">
<g id="SVGRepo_bgCarrier" stroke-width="0"></g>
<g id="SVGRepo_tracerCarrier" stroke-linecap="round" stroke-linejoin="round"></g>
<g id="SVGRepo_iconCarrier">
 <path fill-rule="nonzero" clip-rule="nonzero" d="M8.20726 0.129583C8.46706 0.205238 8.66501 0.416426 8.72371 0.680576L9.92292 6.07703L15.3194 7.27624C15.5836 7.33494 15.7948 7.53288 15.8704 7.79269C15.9461 8.05249 15.8742 8.33287 15.6828 8.52421L8.52427 15.6828C8.34503 15.862 8.08665 15.9373 7.8392 15.8823L1.98214 14.5807C1.70114 14.5183 1.48168 14.2988 1.41923 14.0178L0.117674 8.1608C0.0626867 7.91336 0.137929 7.65497 0.317168 7.47573L7.47574 0.317164C7.66708 0.125826 7.94746 0.0539287 8.20726 0.129583ZM8.48951 6.46196L7.56922 2.32064L1.65343 8.23644L2.57372 12.3777L8.48951 6.46196ZM3.62221 13.4262L7.76357 14.3465L13.6794 8.43073L9.538 7.51044L3.62221 13.4262Z" fill="#ffffff"></path>
</g>
</svg>